<mxfile host="app.diagrams.net" modified="2022-02-13T09:35:10.860Z" agent="5.0 (Macintosh; Intel Mac OS X 10_15_7) AppleWebKit/537.36 (KHTML, like Gecko) Chrome/97.0.4692.99 Safari/537.36" etag="rTxXZbmnnDRCzqeSitii" version="16.5.2" type="github" pages="2">
  <diagram id="sVCKCs1n_FH8c0135Imq" name="文献选择方法-中文">
    <mxGraphModel dx="1141" dy="771" grid="1" gridSize="10" guides="1" tooltips="1" connect="1" arrows="1" fold="1" page="1" pageScale="1" pageWidth="850" pageHeight="1100" math="0" shadow="0">
      <root>
        <mxCell id="0" />
        <mxCell id="1" parent="0" />
        <mxCell id="hd-EJ8_mgpXZz8sTFrz2-3" style="edgeStyle=orthogonalEdgeStyle;rounded=0;orthogonalLoop=1;jettySize=auto;html=1;entryX=0.5;entryY=0;entryDx=0;entryDy=0;" parent="1" source="hd-EJ8_mgpXZz8sTFrz2-1" target="hd-EJ8_mgpXZz8sTFrz2-2" edge="1">
          <mxGeometry relative="1" as="geometry" />
        </mxCell>
        <mxCell id="hd-EJ8_mgpXZz8sTFrz2-1" value="&lt;span style=&quot;font-size: 14pt ; line-height: 19.9733px ; letter-spacing: -0.05pt&quot;&gt;检索出的可能相关的文献&lt;/span&gt;&lt;span style=&quot;font-size: medium&quot;&gt;&lt;/span&gt;" style="rounded=0;whiteSpace=wrap;html=1;" parent="1" vertex="1">
          <mxGeometry x="340" y="80" width="120" height="60" as="geometry" />
        </mxCell>
        <mxCell id="hd-EJ8_mgpXZz8sTFrz2-5" value="可能相关" style="edgeStyle=orthogonalEdgeStyle;rounded=0;orthogonalLoop=1;jettySize=auto;html=1;entryX=0.5;entryY=0;entryDx=0;entryDy=0;" parent="1" source="hd-EJ8_mgpXZz8sTFrz2-2" target="hd-EJ8_mgpXZz8sTFrz2-4" edge="1">
          <mxGeometry relative="1" as="geometry" />
        </mxCell>
        <mxCell id="hd-EJ8_mgpXZz8sTFrz2-7" value="不相关" style="edgeStyle=orthogonalEdgeStyle;rounded=0;orthogonalLoop=1;jettySize=auto;html=1;entryX=0;entryY=0.5;entryDx=0;entryDy=0;" parent="1" source="hd-EJ8_mgpXZz8sTFrz2-2" target="hd-EJ8_mgpXZz8sTFrz2-6" edge="1">
          <mxGeometry relative="1" as="geometry" />
        </mxCell>
        <mxCell id="hd-EJ8_mgpXZz8sTFrz2-2" value="阅读标题和摘要" style="ellipse;whiteSpace=wrap;html=1;" parent="1" vertex="1">
          <mxGeometry x="340" y="160" width="120" height="40" as="geometry" />
        </mxCell>
        <mxCell id="hd-EJ8_mgpXZz8sTFrz2-9" value="&lt;span style=&quot;font-size: 11px&quot;&gt;具有相关性、可用性&lt;/span&gt;" style="edgeStyle=orthogonalEdgeStyle;rounded=0;orthogonalLoop=1;jettySize=auto;html=1;entryX=0.5;entryY=0;entryDx=0;entryDy=0;" parent="1" source="hd-EJ8_mgpXZz8sTFrz2-4" target="hd-EJ8_mgpXZz8sTFrz2-8" edge="1">
          <mxGeometry relative="1" as="geometry" />
        </mxCell>
        <mxCell id="hd-EJ8_mgpXZz8sTFrz2-11" style="edgeStyle=orthogonalEdgeStyle;rounded=0;orthogonalLoop=1;jettySize=auto;html=1;entryX=0;entryY=0.5;entryDx=0;entryDy=0;" parent="1" source="hd-EJ8_mgpXZz8sTFrz2-4" target="hd-EJ8_mgpXZz8sTFrz2-10" edge="1">
          <mxGeometry relative="1" as="geometry" />
        </mxCell>
        <mxCell id="hd-EJ8_mgpXZz8sTFrz2-12" value="不符合纳入标准" style="edgeLabel;html=1;align=center;verticalAlign=middle;resizable=0;points=[];" parent="hd-EJ8_mgpXZz8sTFrz2-11" vertex="1" connectable="0">
          <mxGeometry x="-0.02" relative="1" as="geometry">
            <mxPoint as="offset" />
          </mxGeometry>
        </mxCell>
        <mxCell id="hd-EJ8_mgpXZz8sTFrz2-4" value="&lt;span style=&quot;font-size: 14pt ; line-height: 19.9733px ; letter-spacing: -0.05pt&quot;&gt;获取文献全文，进行详细评估&lt;/span&gt;&lt;span style=&quot;font-size: medium&quot;&gt;&lt;/span&gt;" style="rounded=0;whiteSpace=wrap;html=1;" parent="1" vertex="1">
          <mxGeometry x="320" y="260" width="160" height="60" as="geometry" />
        </mxCell>
        <mxCell id="hd-EJ8_mgpXZz8sTFrz2-6" value="&lt;span style=&quot;font-size: 14pt ; line-height: 19.9733px ; letter-spacing: -0.05pt&quot;&gt;排除的文献，并说明理由&lt;/span&gt;&lt;span style=&quot;font-size: medium&quot;&gt;&lt;/span&gt;" style="rounded=0;whiteSpace=wrap;html=1;" parent="1" vertex="1">
          <mxGeometry x="620" y="150" width="160" height="60" as="geometry" />
        </mxCell>
        <mxCell id="hd-EJ8_mgpXZz8sTFrz2-8" value="&lt;span style=&quot;font-size: 14pt ; line-height: 19.9733px ; letter-spacing: -0.05pt&quot;&gt;文献纳入临床评价&lt;/span&gt;&lt;span style=&quot;font-size: medium&quot;&gt;&lt;/span&gt;" style="rounded=0;whiteSpace=wrap;html=1;" parent="1" vertex="1">
          <mxGeometry x="320" y="410" width="160" height="60" as="geometry" />
        </mxCell>
        <mxCell id="hd-EJ8_mgpXZz8sTFrz2-10" value="&lt;span style=&quot;font-size: 14pt ; line-height: 19.9733px ; letter-spacing: -0.05pt&quot;&gt;排除的文献，并说明理由&lt;/span&gt;&lt;span style=&quot;font-size: medium&quot;&gt;&lt;/span&gt;" style="rounded=0;whiteSpace=wrap;html=1;" parent="1" vertex="1">
          <mxGeometry x="620" y="260" width="160" height="60" as="geometry" />
        </mxCell>
      </root>
    </mxGraphModel>
  </diagram>
  <diagram name="Eng" id="FR9XGBnUDaTmVbBu_fjP">
    <mxGraphModel dx="1141" dy="771" grid="1" gridSize="10" guides="1" tooltips="1" connect="1" arrows="1" fold="1" page="1" pageScale="1" pageWidth="850" pageHeight="1100" math="0" shadow="0">
      <root>
        <mxCell id="WsE2cHFZBcPeJ1LFLaBM-0" />
        <mxCell id="WsE2cHFZBcPeJ1LFLaBM-1" parent="WsE2cHFZBcPeJ1LFLaBM-0" />
        <mxCell id="WsE2cHFZBcPeJ1LFLaBM-2" style="edgeStyle=orthogonalEdgeStyle;rounded=0;orthogonalLoop=1;jettySize=auto;html=1;entryX=0.5;entryY=0;entryDx=0;entryDy=0;" edge="1" parent="WsE2cHFZBcPeJ1LFLaBM-1" source="WsE2cHFZBcPeJ1LFLaBM-3" target="WsE2cHFZBcPeJ1LFLaBM-6">
          <mxGeometry relative="1" as="geometry" />
        </mxCell>
        <mxCell id="WsE2cHFZBcPeJ1LFLaBM-3" value="&lt;span style=&quot;font-size: 14px; line-height: 19.9733px; letter-spacing: -0.05pt;&quot;&gt;Potentially relevant literature identified through the search&lt;/span&gt;&lt;span style=&quot;font-size: 14px;&quot;&gt;&lt;/span&gt;" style="rounded=0;whiteSpace=wrap;html=1;fontSize=14;" vertex="1" parent="WsE2cHFZBcPeJ1LFLaBM-1">
          <mxGeometry x="280" y="80" width="240" height="60" as="geometry" />
        </mxCell>
        <mxCell id="WsE2cHFZBcPeJ1LFLaBM-4" value="Maybe relevant" style="edgeStyle=orthogonalEdgeStyle;rounded=0;orthogonalLoop=1;jettySize=auto;html=1;entryX=0.5;entryY=0;entryDx=0;entryDy=0;" edge="1" parent="WsE2cHFZBcPeJ1LFLaBM-1" source="WsE2cHFZBcPeJ1LFLaBM-6" target="WsE2cHFZBcPeJ1LFLaBM-10">
          <mxGeometry relative="1" as="geometry" />
        </mxCell>
        <mxCell id="WsE2cHFZBcPeJ1LFLaBM-5" value="Irrelevant" style="edgeStyle=orthogonalEdgeStyle;rounded=0;orthogonalLoop=1;jettySize=auto;html=1;entryX=0;entryY=0.5;entryDx=0;entryDy=0;" edge="1" parent="WsE2cHFZBcPeJ1LFLaBM-1" source="WsE2cHFZBcPeJ1LFLaBM-6" target="WsE2cHFZBcPeJ1LFLaBM-11">
          <mxGeometry relative="1" as="geometry" />
        </mxCell>
        <mxCell id="WsE2cHFZBcPeJ1LFLaBM-6" value="Read titles and abstracts" style="ellipse;whiteSpace=wrap;html=1;" vertex="1" parent="WsE2cHFZBcPeJ1LFLaBM-1">
          <mxGeometry x="340" y="160" width="120" height="40" as="geometry" />
        </mxCell>
        <mxCell id="WsE2cHFZBcPeJ1LFLaBM-7" value="&lt;span style=&quot;font-size: 11px&quot;&gt;With&amp;nbsp;&lt;/span&gt;&lt;span style=&quot;font-size: 11px&quot;&gt;suitability and contributions&lt;/span&gt;" style="edgeStyle=orthogonalEdgeStyle;rounded=0;orthogonalLoop=1;jettySize=auto;html=1;entryX=0.5;entryY=0;entryDx=0;entryDy=0;" edge="1" parent="WsE2cHFZBcPeJ1LFLaBM-1" source="WsE2cHFZBcPeJ1LFLaBM-10" target="WsE2cHFZBcPeJ1LFLaBM-12">
          <mxGeometry relative="1" as="geometry" />
        </mxCell>
        <mxCell id="WsE2cHFZBcPeJ1LFLaBM-8" style="edgeStyle=orthogonalEdgeStyle;rounded=0;orthogonalLoop=1;jettySize=auto;html=1;entryX=0;entryY=0.5;entryDx=0;entryDy=0;" edge="1" parent="WsE2cHFZBcPeJ1LFLaBM-1" source="WsE2cHFZBcPeJ1LFLaBM-10" target="WsE2cHFZBcPeJ1LFLaBM-13">
          <mxGeometry relative="1" as="geometry" />
        </mxCell>
        <mxCell id="JdZPcs4W1wyxRTy7vCER-0" value="Not meet inclusion criteria" style="edgeLabel;html=1;align=center;verticalAlign=middle;resizable=0;points=[];fontSize=4;" vertex="1" connectable="0" parent="WsE2cHFZBcPeJ1LFLaBM-8">
          <mxGeometry x="-0.0667" y="-1" relative="1" as="geometry">
            <mxPoint as="offset" />
          </mxGeometry>
        </mxCell>
        <mxCell id="WsE2cHFZBcPeJ1LFLaBM-10" value="&lt;span style=&quot;font-size: 14px; line-height: 19.9733px; letter-spacing: -0.05pt;&quot;&gt;Literature retrieved for more detailed assessment&lt;/span&gt;&lt;span style=&quot;font-size: 14px;&quot;&gt;&lt;/span&gt;" style="rounded=0;whiteSpace=wrap;html=1;fontSize=14;" vertex="1" parent="WsE2cHFZBcPeJ1LFLaBM-1">
          <mxGeometry x="280" y="260" width="240" height="60" as="geometry" />
        </mxCell>
        <mxCell id="WsE2cHFZBcPeJ1LFLaBM-11" value="&lt;span style=&quot;line-height: 19.9733px ; letter-spacing: -0.05pt&quot;&gt;&lt;font style=&quot;font-size: 14px&quot;&gt;Literature excluded, with reasons&lt;/font&gt;&lt;/span&gt;&lt;span style=&quot;font-size: medium&quot;&gt;&lt;/span&gt;" style="rounded=0;whiteSpace=wrap;html=1;" vertex="1" parent="WsE2cHFZBcPeJ1LFLaBM-1">
          <mxGeometry x="690" y="150" width="160" height="60" as="geometry" />
        </mxCell>
        <mxCell id="WsE2cHFZBcPeJ1LFLaBM-12" value="&lt;span style=&quot;font-size: 14px; line-height: 19.9733px; letter-spacing: -0.05pt;&quot;&gt;Literature with relevant, usable data included in the clinical evaluation&lt;/span&gt;&lt;span style=&quot;font-size: 14px;&quot;&gt;&lt;/span&gt;" style="rounded=0;whiteSpace=wrap;html=1;fontSize=14;" vertex="1" parent="WsE2cHFZBcPeJ1LFLaBM-1">
          <mxGeometry x="280" y="410" width="240" height="60" as="geometry" />
        </mxCell>
        <mxCell id="WsE2cHFZBcPeJ1LFLaBM-13" value="&lt;span style=&quot;font-size: 14px ; letter-spacing: -0.0666667px&quot;&gt;Literature excluded, with reasons&lt;/span&gt;" style="rounded=0;whiteSpace=wrap;html=1;" vertex="1" parent="WsE2cHFZBcPeJ1LFLaBM-1">
          <mxGeometry x="690" y="260" width="160" height="60" as="geometry" />
        </mxCell>
      </root>
    </mxGraphModel>
  </diagram>
</mxfile>
